# xmcd
#
# Track frame offsets: 
#        150
#        7572
#        21171
#        39707
#        54448
#        68647
#        88622
#        103434
#        105804
#        122172
#        141182
#        159726
#        176382
#        178091
#        193187
#        212331
#        234402
#        248420
#
# Disc length: 3556 seconds
#
# Revision: 0
# Processed by: cddbd v1.5.2PL0 Copyright (c) Steve Scherf et al.
# Submitted via: ExactAudioCopyFreeDBPlugin 1.0
#
DISCID=e30de212
DTITLE=Unmensh - Spricht für sich selbst
DYEAR=2008
DGENRE=Rap
TTITLE0=Untro
TTITLE1=Juice oder Backspin
TTITLE2=Du weisst feat. Blood Spencore
TTITLE3=Reite mit uns II feat. Rhymin Simon
TTITLE4=Ich will weg
TTITLE5=Kein Film feat. Olson Rough, Blood Spencore and Elly
TTITLE6=Rapstrengdichan
TTITLE7=Du hast es getan
TTITLE8=Du bis nich mehr da feat. Vokalmatador
TTITLE9=Ihr könnt feat. Blood Spencore
TTITLE10=Ring frei feat. Sha-Karl, Plaetter Pi and Blood Spencore
TTITLE11=Mir sagt eine Stimme
TTITLE12=Frag Torch...
TTITLE13=Life Is A Stage feat. Dange
TTITLE14=Troublemaker feat. Michael Mic and Olson Rough
TTITLE15=U.N.M.E.N.S.H.
TTITLE16=Das mach ich (Outrun)
TTITLE17=Frag Simon...
EXTD=
EXTT0=
EXTT1=
EXTT2=
EXTT3=
EXTT4=
EXTT5=
EXTT6=
EXTT7=
EXTT8=
EXTT9=
EXTT10=
EXTT11=
EXTT12=
EXTT13=
EXTT14=
EXTT15=
EXTT16=
EXTT17=
PLAYORDER=
